<?xml version="1.0" encoding="UTF-8"?>
<svg width="247px" height="301px" viewBox="0 0 247 301" version="1.1" xmlns="http://www.w3.org/2000/svg" xmlns:xlink="http://www.w3.org/1999/xlink">
    <!-- Generator: Sketch 42 (36781) - http://www.bohemiancoding.com/sketch -->
    <title>Group 31</title>
    <desc>Created with Sketch.</desc>
    <defs>
        <ellipse id="path-1" cx="19.3483333" cy="19.3265027" rx="19.3483333" ry="19.3265027"></ellipse>
        <path d="M3.07116402,11.0437103 C6.28766974,5.53921733 12.2638461,1.84061931 19.1048521,1.84061931 C25.9458581,1.84061931 31.9220344,5.53921733 35.1385401,11.0437103 L3.07116078,11.0437158 Z" id="path-3"></path>
    </defs>
    <g id="Page-1" stroke="none" stroke-width="1" fill="none" fill-rule="evenodd">
        <g id="Artboard" transform="translate(-752.000000, -886.000000)">
            <g id="Group-31" transform="translate(752.000000, 886.000000)">
                <g id="Group-14">
                    <ellipse id="Oval-10" fill="#D85151" cx="214.066667" cy="158.724044" rx="32.9333333" ry="32.8961749"></ellipse>
                    <ellipse id="Oval-10" fill="#EEBA64" cx="225.593333" cy="171.060109" rx="9.88" ry="9.86885246"></ellipse>
                    <ellipse id="Oval-10" fill="#D8D8D8" cx="228.063333" cy="183.396175" rx="6.58666667" ry="6.57923497"></ellipse>
                    <ellipse id="Oval-10" fill="#D85151" cx="65.8666667" cy="161.191257" rx="32.9333333" ry="32.8961749"></ellipse>
                    <rect id="Rectangle-33" fill="#EEBA64" x="69.9833333" y="69.9043716" width="153.14" height="231.095628" rx="76.57"></rect>
                    <ellipse id="Oval-10" fill="#D85151" cx="70.395" cy="70.3155738" rx="70.395" ry="70.3155738"></ellipse>
                    <ellipse id="Oval-10" fill="#D85151" cx="146.965" cy="70.3155738" rx="46.5183333" ry="46.465847"></ellipse>
                    <ellipse id="Oval-10" fill="#D85151" cx="214.066667" cy="95.3989071" rx="32.9333333" ry="32.8961749"></ellipse>
                    <ellipse id="Oval-10" fill="#717171" cx="189.366667" cy="174.349727" rx="8.23333333" ry="8.22404372"></ellipse>
                    <ellipse id="Oval-10" fill="#717171" cx="154.786667" cy="216.29235" rx="4.11666667" ry="4.11202186"></ellipse>
                    <ellipse id="Oval-10" fill="#717171" cx="136.673333" cy="216.29235" rx="4.11666667" ry="4.11202186"></ellipse>
                    <ellipse id="Oval-10" fill="#717171" cx="99.6233333" cy="174.349727" rx="8.23333333" ry="8.22404372"></ellipse>
                    <g id="Group-12" transform="translate(52.693333, 129.939891)">
                        <path d="M66.0392237,16.2238316 L15.1193974,48.0420704 C14.9219654,46.585307 14.82,45.0982635 14.82,43.5874317 C14.82,25.419376 29.5647556,10.6912568 47.7533333,10.6912568 C54.5190127,10.6912568 60.8081886,12.7291088 66.0392237,16.2238316 Z" id="Combined-Shape" fill="#D8D8D8"></path>
                        <path d="M55.6404672,10.6912572 L14.82,10.6912572 L14.82,44.8201883 C21.307869,27.2575153 36.7650168,14.0329673 55.6404672,10.6912572 Z" id="Combined-Shape" fill="#717171"></path>
                        <ellipse id="Oval-10" fill="#EEBA64" cx="9.88" cy="41.1202186" rx="9.88" ry="9.86885246"></ellipse>
                        <ellipse id="Oval-10" fill="#D8D8D8" cx="10.7033333" cy="53.4562842" rx="6.58666667" ry="6.57923497"></ellipse>
                        <ellipse id="Oval-10" stroke="#717171" stroke-width="7" cx="47.7533333" cy="44.4098361" rx="32.9333333" ry="32.8961749"></ellipse>
                        <path d="M151.090108,17.8569531 L100.170281,49.6751919 C99.9728495,48.2184285 99.8708841,46.7313851 99.8708841,45.2205532 C99.8708841,27.0524975 114.61564,12.3243783 132.804217,12.3243783 C139.569897,12.3243783 145.859073,14.3622303 151.090108,17.8569531 Z" id="Combined-Shape" fill="#D8D8D8" transform="translate(125.480496, 30.999785) scale(-1, 1) rotate(66.000000) translate(-125.480496, -30.999785) "></path>
                        <path d="M172.553803,10.7259319 L131.733335,10.7259319 L131.733335,44.854863 C138.221204,27.29219 153.678352,14.0676419 172.553803,10.7259319 Z" id="Combined-Shape" fill="#717171" transform="translate(152.143569, 27.790397) scale(-1, 1) translate(-152.143569, -27.790397) "></path>
                        <ellipse id="Oval-10" stroke="#717171" stroke-width="7" transform="translate(137.496667, 44.444511) scale(-1, 1) translate(-137.496667, -44.444511) " cx="137.496667" cy="44.4445107" rx="32.9333333" ry="32.8961749"></ellipse>
                        <rect id="Rectangle-36" fill="#717171" x="82.3333333" y="36.1857923" width="21.4066667" height="8.22404372"></rect>
                    </g>
                    <g id="Group-13" transform="translate(126.793333, 236.030055)">
                        <g id="Oval-10">
                            <mask id="mask-2" fill="white">
                                <use xlink:href="#path-1"></use>
                            </mask>
                            <use id="Mask" fill="#D85151" xlink:href="#path-1"></use>
                            <ellipse fill="#717171" mask="url(#mask-2)" cx="19.6554497" cy="34.9717668" rx="14.7415873" ry="14.7249545"></ellipse>
                        </g>
                        <mask id="mask-4" fill="white">
                            <use xlink:href="#path-3"></use>
                        </mask>
                        <use id="Combined-Shape" fill="#FFFFFF" xlink:href="#path-3"></use>
                    </g>
                </g>
            </g>
        </g>
    </g>
</svg>